{"title":"The Sorcerers Apprentice-AC3-XviD-BRRip[Eng]2010 2Lions-Team","uid":5952465,"size":1569614532,"categoryP":"video","categoryS":"movies","magnet":"?xt=urn:btih:285a1f9020cc72c79914054054f992bcc33511a8&amp;dn=The+Sorcerers+Apprentice-AC3-XviD-BRRip%5BEng%5D2010+2Lions-Team&amp;tr=udp%3A%2F%2Ftracker.openbittorrent.com%3A80&amp;tr=udp%3A%2F%2Fopen.demonii.com%3A1337&amp;tr=udp%3A%2F%2Ftracker.coppersurfer.tk%3A6969&amp;tr=udp%3A%2F%2Fexodus.desync.com%3A6969","seeders":0,"leechers":0,"uploader":"FatFreddy31","files":-1,"time":1289574223,"description":"Master sorcerer Balthazar Blake recruits a seemingly everyday guy in his mission to defend New York City from his arch-nemesis, Maxim Horvath.\n &lt;a href=&quot;\nhttp://www.imdb.com/title/tt0963966/&quot; rel=&quot;nofollow&quot; target=&quot;_NEW&quot;&gt;\nhttp://www.imdb.com/title/tt0963966/&lt;/a&gt;\n\nSubtitles (srt) : Dutch, English.\n\nCovers included.\n\nBalthazar Blake (Nicolas Cage) is een tovenaarsmeester in het hedendaagse Manhattan die probeert zijn stad te beschermen tegen zijn aartsvijand, Maxim Horvath. Balthazar kan dit echter niet alleen, daarom benadert hij de jonge Dave Stutler (Jay Baruchel). Dave is een doorsnee jongen maar heeft een verborgen potentieel om een tovenaar te kunnen worden. Balthazar neemt de jongen onder zijn hoede en geeft zijn onzekere leerling een stoomcursus magie. Het vergt het uiterste van Dave zijn moed om Balthazar's training te overleven, de stad te redden en het meisje van zijn dromen voor zich te winnen.\n &lt;a href=&quot;\nhttp://www.moviemeter.nl/film/61476&quot; rel=&quot;nofollow&quot; target=&quot;_NEW&quot;&gt;\nhttp://www.moviemeter.nl/film/61476&lt;/a&gt;\n\nOndertitels (srt) : Engels, Nederlands.\n\nHoesjes bijgevoegd.\n\nGeneral\nComplete name                    : The Sorcerers Apprentice-AC3-XviD-BRRip[Eng]2010 2Lions-Team\\The Sorcerers Apprentice-AC3-XviD-BRRip[Eng]2010 2Lions-Team.avi\nFormat                           : AVI\nFormat/Info                      : Audio Video Interleave\nFile size                        : 1.46 GiB\nDuration                         : 1h 49mn\nOverall bit rate                 : 1 918 Kbps\nWriting application              : VirtualDubMod 1.5.4.1 (build 2178/release)\nWriting library                  : VirtualDubMod build 2178/release\nSource                           : The.Sorcerers.Apprentice.720p.Bluray.x264-CBGB\n\nVideo\nID                               : 0\nFormat                           : MPEG-4 Visual\nFormat profile                   : Simple@L3\nFormat settings, BVOP            : No\nFormat settings, QPel            : No\nFormat settings, GMC             : No warppoints\nFormat settings, Matrix          : Default (H.263)\nCodec ID                         : XVID\nCodec ID/Hint                    : XviD\nDuration                         : 1h 49mn\nBit rate                         : 1 461 Kbps\nWidth                            : 720 pixels\nHeight                           : 304 pixels\nDisplay aspect ratio             : 2.35:1\nFrame rate                       : 23.976 fps\nResolution                       : 8 bits\nColorimetry                      : 4:2:0\nScan type                        : Progressive\nBits/(Pixel*Frame)               : 0.278\nStream size                      : 1.11 GiB (76%)\nWriting library                  : XviD 1.1.2 (UTC 2006-11-01)\n\nAudio\nID                               : 1\nFormat                           : AC-3\nFormat/Info                      : Audio Coding 3\nCodec ID                         : 2000\nDuration                         : 1h 49mn\nBit rate mode                    : Constant\nBit rate                         : 448 Kbps\nChannel(s)                       : 6 channels\nChannel positions                : Front: L C R, Surround: L R, LFE\nSampling rate                    : 48.0 KHz\nStream size                      : 349 MiB (23%)\nAlignment                        : Split accross interleaves\nInterleave, duration             : 42 ms (1.00 video frame)\nInterleave, preload duration     : 500 ms\n\nThanks to Bradje for the source, and GEM-Releases for the Dutch subs.\n \nBrought to you by Gollum.\n\nDON T HIT AND RUN Niet gelijk afhaken als de FILM binnen is blijf seeden. \n\nDon`t quit after you finished the download, but keep seeding\n\nThere are fake torrents from uploaders who use our team name.\nThose are not ours, or members from our team.\nWe 2Lions-Team are not responsible for the fake posts on our name\n\nWij 2Lions-Team zijn niet verantwoordelijk voor die zieke FAKE posten die op onze naam worden gedaan\n\nPlease check our site !!!\n\nto the fakers , get a life !!!","torrent":{"xt":"urn:btih:285a1f9020cc72c79914054054f992bcc33511a8","amp;dn":"The+Sorcerers+Apprentice-AC3-XviD-BRRip%5BEng%5D2010+2Lions-Team","amp;tr":["udp%3A%2F%2Ftracker.openbittorrent.com%3A80","udp%3A%2F%2Fopen.demonii.com%3A1337","udp%3A%2F%2Ftracker.coppersurfer.tk%3A6969","udp%3A%2F%2Fexodus.desync.com%3A6969"],"infoHash":"285a1f9020cc72c79914054054f992bcc33511a8","infoHashBuffer":{"type":"Buffer","data":[40,90,31,144,32,204,114,199,153,20,5,64,84,249,146,188,195,53,17,168]},"announce":[],"urlList":[]}}